# xmcd
#
# Track frame offsets:
#	150
#	18982
#	34489
#	52286
#	60460
#	79724
#	98474
#	114891
#	135620
#	154736
#	178219
#	198103
#	214497
#	235410
#	256380
#	278956
#	295451
#	310654
#	326029
#	339713
#
# Disc length: 4797 seconds
#
# Revision: 1
# Processed by: cddbd v1.5.2PL0 Copyright (c) Steve Scherf et al.
# Submitted via: audiograbber 1.83.01
#
DISCID=2c12bb14
DTITLE=Diverse kunstnere Country - Canadian American Midem Radio Singles
DYEAR=1900
DGENRE=
TTITLE0=Sandy (Not A Perfect Storm) -Joey Welz
TTITLE1=Wonna Be Bad -Rock Garden
TTITLE2=You Do Me Good -Rock Garden
TTITLE3=Lets Be Real -Brian Zimmerman
TTITLE4=Mud -Dreaded Monkey
TTITLE5=This Is Not A Song -Dreaded Monkey
TTITLE6=Slipping Away -Kontraband
TTITLE7=Monkey My Back -Kontraband
TTITLE8=Onelast memory, Onelast Breath -Tukurpa
TTITLE9=Change -Tukurpa
TTITLE10=Freedom -Steven Chase
TTITLE11=I´m Still Rocking Around The Clock -Joey Welz
TTITLE12=In Marti´s Arms -Joey Welz
TTITLE13=Every Thing´s Gone -Charlie Jade
TTITLE14=Born To Be A Soldier -Gary Cordice
TTITLE15=All The Time -Pernelli
TTITLE16=Love Alway Prevails -Betty Jo Rockwell
TTITLE17=You Not Here -Jason Walker
TTITLE18=Where Did Your Love Go -Steven Chase
TTITLE19=Nutter Strut -Neil C Young
EXTD=
EXTT0=
EXTT1=
EXTT2=
EXTT3=
EXTT4=
EXTT5=
EXTT6=
EXTT7=
EXTT8=
EXTT9=
EXTT10=
EXTT11=
EXTT12=
EXTT13=
EXTT14=
EXTT15=
EXTT16=
EXTT17=
EXTT18=
EXTT19=
PLAYORDER=
